<svg width="93" height="20" viewBox="0 0 93 20" fill="none" xmlns="http://www.w3.org/2000/svg">
<mask id="mask0_2307_836" style="mask-type:luminance" maskUnits="userSpaceOnUse" x="0" y="0" width="93" height="20">
<path d="M92.6331 0H0V20H92.6331V0Z" fill="black"></path>
</mask>
<g mask="url(#mask0_2307_836)">
<path d="M29.9178 4.65765H25.5796V15.5136H27.5957V11.7448H29.6852C32.1666 11.7448 33.5621 10.3024 33.5621 8.20913C33.5621 6.03784 32.1666 4.65765 29.9178 4.65765ZM29.3746 10.1631H27.5957V6.37907H29.5766C30.7706 6.37907 31.4995 7.01464 31.4995 8.20913C31.4995 9.46538 30.7706 10.1631 29.3746 10.1631Z" fill="black"></path>
<path d="M44.2444 7.86791C44.2444 5.96033 42.8795 4.65765 40.7241 4.65765H35.9668V15.5136H37.9829V6.39439H40.3207C41.4994 6.39439 42.1354 6.9993 42.1354 8.02297C42.1354 9.07729 41.453 9.7133 40.1034 9.7133H37.9829L42.2321 15.5136H44.5235L41.1545 11.035C43.057 10.8495 44.2444 9.68219 44.2444 7.86791Z" fill="black"></path>
<path d="M67.4407 13.0634L62.7881 4.65765H60.0122V15.5136H61.9041V6.81324L66.7741 15.5136H69.3177V4.65765H67.4407V13.0634Z" fill="black"></path>
<path d="M71.5522 6.50308H74.7645V15.5136H76.7649V6.50308H80.0388V4.65765H71.5522V6.50308Z" fill="black"></path>
<path d="M86.8943 4.42462C85.7593 4.4246 84.6499 4.76117 83.7062 5.39172C82.7624 6.02229 82.0269 6.91852 81.5926 7.9671C81.1582 9.01569 81.0446 10.1695 81.2661 11.2827C81.4874 12.3959 82.0341 13.4184 82.8366 14.2209C83.6391 15.0235 84.6616 15.57 85.7748 15.7914C86.8879 16.0129 88.0418 15.8992 89.0904 15.4649C90.1389 15.0305 91.0352 14.295 91.6658 13.3513C92.2962 12.4076 92.6329 11.2981 92.6329 10.1632C92.6329 8.64121 92.0283 7.18159 90.9521 6.1054C89.8759 5.02922 88.4163 4.42462 86.8943 4.42462ZM86.8943 13.9941C84.8814 13.9941 83.2496 12.2789 83.2496 10.1632C83.2496 8.04739 84.8814 6.33222 86.8943 6.33222C88.9073 6.33222 90.5391 8.04739 90.5391 10.1632C90.5391 12.2789 88.9073 13.9941 86.8943 13.9941Z" fill="black"></path>
<path d="M51.8899 4.42462C50.7549 4.4246 49.6453 4.76117 48.7018 5.39174C47.758 6.02229 47.0225 6.91852 46.5883 7.96711C46.1538 9.01569 46.0402 10.1695 46.2617 11.2827C46.483 12.3959 47.0295 13.4184 47.832 14.2209C48.6348 15.0235 49.6572 15.57 50.7703 15.7914C51.8835 16.0129 53.0374 15.8992 54.0859 15.4649C55.1345 15.0305 56.0308 14.295 56.6614 13.3513C57.2918 12.4076 57.6283 11.2981 57.6285 10.1632C57.6285 9.40956 57.48 8.66334 57.1916 7.96711C56.9033 7.27089 56.4806 6.63828 55.9477 6.1054C55.4148 5.57253 54.7821 5.14982 54.0859 4.86143C53.3898 4.57305 52.6434 4.42462 51.8899 4.42462ZM51.8899 13.9941C49.877 13.9941 48.2452 12.2789 48.2452 10.1632C48.2452 8.04739 49.877 6.33222 51.8899 6.33222C53.9029 6.33222 55.5347 8.04739 55.5347 10.1632C55.5347 12.2789 53.9029 13.9941 51.8899 13.9941Z" fill="black"></path>
<path d="M9.87517 0C4.49055 0 -0.150163 4.55401 0.00372114 10.167C0.0273287 11.0771 0.1639 11.9808 0.4103 12.8573H7.13796V19.6338C8.02962 19.879 8.95041 20.0023 9.87517 20C15.4902 20 20.0422 15.6477 20.0422 10.167C20.0422 7.47053 18.9711 4.88452 17.0643 2.97783C15.1576 1.07116 12.5716 0 9.87517 0ZM9.87517 14.0052C9.11604 14.0052 8.37395 13.7801 7.74276 13.3584C7.11157 12.9366 6.6196 12.3371 6.3291 11.6358C6.03859 10.9345 5.96258 10.1627 6.11068 9.41818C6.25878 8.67364 6.62433 7.98974 7.16112 7.45295C7.6979 6.91617 8.38181 6.55061 9.12635 6.40251C9.87091 6.25441 10.6426 6.33042 11.344 6.62093C12.0453 6.91144 12.6448 7.40338 13.0665 8.03458C13.4883 8.66577 13.7134 9.40785 13.7134 10.167C13.7134 11.1849 13.309 12.1612 12.5892 12.881C11.8694 13.6008 10.8931 14.0052 9.87517 14.0052Z" fill="black"></path>
</g>
</svg>